<svg xmlns="http://www.w3.org/2000/svg" width="577.32" height="256.98" viewBox="0 0 577.32 256.98">
  <path id="mint-logo" d="M571.241,276.532a4.82,4.82,0,0,1-3.605-2.034c-12.458-19.46-29.463-26.782-44.474-33.245-9.82-4.233-19.108-8.232-25.828-14.985-7.5-7.538-10.689-17.367-10.025-30.946A105.636,105.636,0,0,1,489.787,178c-14.534-3.551-32.328-3-32.328-3h-9.511a35.324,35.324,0,0,1-31.84-18.606,40.317,40.317,0,0,1-4.775-19.8V83.46H398.4a6.939,6.939,0,0,1-4.974-1.89,6.194,6.194,0,0,1-1.99-4.676,6.427,6.427,0,0,1,1.99-4.876,6.939,6.939,0,0,1,4.974-1.89h12.936V39.282a7.744,7.744,0,0,1,2.089-5.572,7.22,7.22,0,0,1,5.473-2.19,7.492,7.492,0,0,1,7.761,7.762V70.127h22.487a6.943,6.943,0,0,1,4.975,1.89,6.427,6.427,0,0,1,1.99,4.876,6.194,6.194,0,0,1-1.99,4.676,6.943,6.943,0,0,1-4.975,1.89H426.656v53.133q0,10.149,5.971,16.617a19.916,19.916,0,0,0,15.323,6.467h5.373c.6,0,3.989-.117,4.526,0,21.536,1.318,36.437,6.5,49.4,11.6a105.866,105.866,0,0,1,23.234,11.669c.787.512,1.2.805,1.213.822,32.462,22.369,41.653,55.873,41.653,55.873,1.724-35.241-28.768-67.374-69.092-80.314,12.716-2.59,24.463-3.444,35-2.529,11.829,1.03,22.214,4.269,30.846,9.627,18.391,11.409,28.237,32.259,27.017,57.192-.986,20.165-9.147,39.475-21.825,51.658h-.019a5,5,0,0,1-3.453,1.29A5.751,5.751,0,0,1,571.241,276.532ZM358.4,172.811a7.305,7.305,0,0,1-2.189-5.373V115.7q0-12.338-4.676-20.3A29.859,29.859,0,0,0,338.8,83.46a40.578,40.578,0,0,0-18.209-3.98,40.1,40.1,0,0,0-17.611,3.781A31.38,31.38,0,0,0,290.54,93.609a25.473,25.473,0,0,0-4.576,14.925v58.9A7.172,7.172,0,0,1,278.4,175a7.662,7.662,0,0,1-5.671-2.089,7.4,7.4,0,0,1-2.09-5.473V73.908a7.211,7.211,0,0,1,7.761-7.761,7.4,7.4,0,0,1,5.473,2.089,7.665,7.665,0,0,1,2.09,5.672v6.724A45.831,45.831,0,0,1,298.7,70.625a48.779,48.779,0,0,1,23.482-5.672,53.392,53.392,0,0,1,25.273,5.871,43.106,43.106,0,0,1,17.611,17.213q6.468,11.343,6.467,27.661v51.74A7.475,7.475,0,0,1,363.971,175,7.546,7.546,0,0,1,358.4,172.811Zm-140,.1a7.668,7.668,0,0,1-2.089-5.672V73.908a7.21,7.21,0,0,1,7.761-7.761,7.4,7.4,0,0,1,5.473,2.089,7.668,7.668,0,0,1,2.089,5.672v93.331a7.668,7.668,0,0,1-2.089,5.672A7.4,7.4,0,0,1,224.074,175,7.664,7.664,0,0,1,218.4,172.911Zm-56.317-.2a7.47,7.47,0,0,1-2.289-5.473V54.555L104.475,167.637a7.282,7.282,0,0,1-6.765,3.781,7.4,7.4,0,0,1-7.164-4.775L35.422,56.4V167.239A7.813,7.813,0,0,1,27.661,175a7.813,7.813,0,0,1-7.761-7.761V27.342a7.376,7.376,0,0,1,2.289-5.572,7.637,7.637,0,0,1,5.472-2.189,7.38,7.38,0,0,1,6.965,3.98L98.276,150.1,160.792,23.561a7.652,7.652,0,0,1,6.965-3.98,7.3,7.3,0,0,1,5.373,2.189,7.548,7.548,0,0,1,2.189,5.572v139.9a7.643,7.643,0,0,1-2.189,5.473A7.147,7.147,0,0,1,167.757,175,7.7,7.7,0,0,1,162.086,172.712ZM216.313,42.267a10.559,10.559,0,0,1-3.184-7.761,9.929,9.929,0,0,1,3.283-7.861,11.248,11.248,0,0,1,7.662-2.885,11,11,0,0,1,7.463,2.885,9.929,9.929,0,0,1,3.283,7.861,10.872,10.872,0,0,1-10.945,10.945A10.328,10.328,0,0,1,216.313,42.267Z" transform="translate(-19.9 -19.581)" fill="#3eb489"/>
</svg>
